<?xml version="1.0" encoding="UTF-8"?>
<svg id="Layer_1" xmlns="http://www.w3.org/2000/svg" version="1.1" viewBox="0 0 195 48">
  <!-- Generator: Adobe Illustrator 29.8.1, SVG Export Plug-In . SVG Version: 2.1.1 Build 2)  -->
  <defs>
    <style>
      .st0 {
        fill: #fff;
      }

      .st1 {
        fill: #829b71;
      }

      .st2 {
        fill: #8c8787;
      }
    </style>
  </defs>
  <path class="st0" d="M60.68,12.86c-6.85,0-12.22,4.37-12.22,9.94v13.41c0,5.58,5.37,9.94,12.22,9.94s12.16-4.27,12.16-9.94v-2.57h-6v2.1c0,3.39-2.64,5.95-6.15,5.95s-6.22-2.56-6.22-5.95v-6.08h18.37v-6.86c0-5.58-5.34-9.94-12.16-9.94ZM66.83,26.41h-12.37v-3.07c0-3.39,2.67-5.95,6.22-5.95s6.15,2.56,6.15,5.95v3.07Z"/>
  <path class="st0" d="M90.45,12.86c-6.85,0-12.22,4.37-12.22,9.94v13.41c0,5.58,5.37,9.94,12.22,9.94s12.16-4.27,12.16-9.94v-3.17h-6v2.7c0,3.39-2.64,5.95-6.15,5.95s-6.22-2.56-6.22-5.95v-12.41c0-3.39,2.67-5.95,6.22-5.95s6.15,2.56,6.15,5.95v2.7h6v-3.24c0-5.58-5.34-9.94-12.16-9.94Z"/>
  <path class="st0" d="M125.12,12.86c-3.44,0-7.06,2.08-8.53,3.39l-1.98,1.76V.99h-6v44.57h6v-23.39l.29-.33c1.84-2.15,4.56-3.43,7.27-3.43,3.55,0,5.15,2.28,5.15,4.54v22.62h6v-23.89c0-4.02-1.42-8.8-8.2-8.8Z"/>
  <path class="st0" d="M151.41,12.86c-6.85,0-12.22,4.37-12.22,9.94v13.41c0,5.58,5.37,9.94,12.22,9.94s12.16-4.27,12.16-9.94v-13.41c0-5.58-5.34-9.94-12.16-9.94ZM157.56,35.75c0,3.39-2.64,5.95-6.15,5.95s-6.22-2.56-6.22-5.95v-12.41c0-3.39,2.67-5.95,6.22-5.95s6.15,2.56,6.15,5.95v12.41Z"/>
  <path class="st0" d="M193.01,23.56v-.76c0-2.66-1.28-5.14-3.61-7-2.38-1.9-5.55-2.94-8.95-2.94-6.69,0-11.55,3.5-11.55,8.33v1.48c0,5.07,5.43,7.03,10.22,8.76,3.98,1.44,7.42,2.67,7.42,5.66v.67c0,1.96-1.88,3.94-5.48,3.94-3.78,0-6.42-2.45-6.42-5.95v-.42h-6v.89c0,5.58,5.34,9.94,12.16,9.94,7.54,0,12.22-3.37,12.22-8.8v-1.68c0-4.42-5.57-6.5-10.49-8.33-4.11-1.53-7.35-2.73-7.35-5.35v-.54c0-1.57,1.43-4.07,5.28-4.07s6.55,2.34,6.55,5.95v.22h6Z"/>
  <g>
    <g>
      <path class="st0" d="M33.3,36.62l5.33-16.26c1.91,1.17,2.74,3.1,2.49,5.33l-4.87,15.05-16.18.06-1.38-3.92c-.05-.08.05-.24.1-.24h14.5Z"/>
      <path class="st0" d="M9.32,29.64c-.21.15-1.2.83-1.26.94s-.05.21-.02.32c1.5,5.11,3.46,10.1,4.94,15.21.04.14.25.83.19.89-2.34.17-4.45-1.14-5.32-3.3-.4-.98-.73-2.22-1.08-3.25-1.04-3.14-2.08-6.31-3.06-9.48-.09-.3-.58-1.73-.53-1.9l13.02-9.52.24.03,3.28,2.39c.03.14-.48.49-.6.59-3.2,2.45-6.58,4.68-9.81,7.09Z"/>
      <path class="st2" d="M25.07,18.15c1.47,1.07,2.94,2.15,4.39,3.25l-1.35,4.03-11.77-8.5L2.54,26.92c-.14.03-.27-.39-.31-.51-.64-1.95.04-4.2,1.58-5.53l12.39-9.02c.17-.05.52.21.69.33,2.73,1.86,5.49,4,8.18,5.96Z"/>
      <path class="st0" d="M27.6,34.53l-.1-.17,4.45-13.73-13.75-10.05c-.11-.16.33-.42.46-.51,1.68-1.17,3.95-1.18,5.68-.12l12.37,9.04-5.02,15.54h-4.1Z"/>
      <path class="st2" d="M35.5,42.89l.08.15c-.66,2.22-2.42,3.81-4.77,3.96l-15.33-.04-5.04-15.45,3.44-2.5,4.7,13.88h16.93Z"/>
    </g>
    <polyline class="st1" points="24.82 34.53 18.27 34.61 15.63 27.61 21.29 23.2 27.03 27.61 25.12 34.61"/>
  </g>
</svg>