<svg width="38" height="38" viewBox="0 0 38 38" fill="none" xmlns="http://www.w3.org/2000/svg">
<path d="M14.0719 0.0764472C13.4906 0.217072 12.6375 0.713947 12.225 1.16395C12.0188 1.38895 11.7094 1.8577 11.55 2.20457L11.25 2.8327L11.2219 5.89832L11.1938 8.96395L7.00313 8.99207L2.8125 9.0202L2.18438 9.3202C1.3125 9.7327 0.76875 10.2577 0.346875 11.1108L0 11.8233V17.9733V24.1233L0.346875 24.8358C0.76875 25.6889 1.3125 26.2139 2.18438 26.6264L2.8125 26.9264L5.50313 26.9546L8.19375 26.9827L8.22188 30.8077L8.25 34.6233L8.59688 35.3358C9.01875 36.1889 9.5625 36.7139 10.4344 37.1264L11.0625 37.4264H17.2031H23.3438L23.9719 37.1264C24.8438 36.7139 25.3875 36.1889 25.8094 35.3358L26.1563 34.6233L26.1844 31.5577L26.2125 28.4827L30.4031 28.4546L34.5938 28.4264L35.2219 28.1264C36.0938 27.7139 36.6375 27.1889 37.0594 26.3358L37.4063 25.6233V19.4733V13.3233L37.0594 12.6108C36.6375 11.7577 36.0938 11.2327 35.2219 10.8202L34.5938 10.5202L31.9031 10.4921L29.2125 10.4639L29.1844 6.63895L29.1563 2.82332L28.8094 2.11082C28.3875 1.2577 27.8438 0.732697 26.9719 0.320197L26.3438 0.0201972L20.3906 0.00144724C16.9875 -0.00792776 14.2781 0.0295722 14.0719 0.0764472ZM26.1469 1.58582C26.6625 1.73582 27.4406 2.51395 27.5906 3.02957C27.75 3.57332 27.75 15.8639 27.5906 16.3983C27.45 16.8577 26.8781 17.5233 26.4188 17.7483C26.0813 17.9171 25.6594 17.9264 18.5531 17.9733L11.0531 18.0202L10.3406 18.3671C9.4875 18.7889 8.9625 19.3327 8.55 20.2046L8.25 20.8327L8.22188 23.1483L8.18438 25.4733H5.79375C4.18125 25.4733 3.27188 25.4358 3.00938 25.3608C2.49375 25.2108 1.71563 24.4327 1.56563 23.9171C1.40625 23.3639 1.40625 12.5827 1.56563 12.0296C1.71563 11.5139 2.49375 10.7358 3.00938 10.5858C3.3 10.5014 5.50313 10.4733 11.9438 10.4733H20.4938L20.7188 10.2389C20.8688 10.0983 20.9531 9.90145 20.9531 9.72332C20.9531 9.5452 20.8688 9.34832 20.7188 9.2077L20.4938 8.97332H16.5938H12.7031V6.19832C12.7031 4.28582 12.7406 3.29207 12.8156 3.02957C12.9563 2.55145 13.7438 1.7452 14.2031 1.5952C14.6906 1.4452 25.6313 1.43582 26.1469 1.58582ZM34.3969 12.0858C34.9125 12.2358 35.6906 13.0139 35.8406 13.5296C36 14.0827 36 24.8639 35.8406 25.4171C35.6906 25.9327 34.9125 26.7108 34.3969 26.8608C34.1063 26.9452 31.9031 26.9733 25.4625 26.9733H16.9125L16.6875 27.2077C16.3781 27.5077 16.3781 27.9389 16.6875 28.2389L16.9125 28.4733H20.8125H24.7031V31.2483C24.7031 33.1608 24.6656 34.1546 24.5906 34.4171C24.4406 34.9327 23.6625 35.7108 23.1469 35.8608C22.5938 36.0202 11.8125 36.0202 11.2594 35.8608C10.7438 35.7108 9.96563 34.9327 9.81563 34.4171C9.65625 33.8733 9.65625 21.5827 9.81563 21.0483C9.95625 20.5889 10.5281 19.9233 10.9875 19.6983C11.325 19.5296 11.7469 19.5202 18.8438 19.4733L26.3438 19.4264L26.9719 19.1264C27.8438 18.7139 28.3875 18.1889 28.8094 17.3358L29.1563 16.6233L29.1844 14.2983L29.2219 11.9733H31.6125C33.225 11.9733 34.1344 12.0108 34.3969 12.0858Z" fill="white"/>
<path d="M15.8438 3.85457C14.8969 4.26707 14.6719 5.52332 15.4126 6.26395C16.4626 7.32332 18.1876 6.37645 17.9157 4.8952C17.7469 4.01395 16.6876 3.47957 15.8438 3.85457Z" fill="white"/>
<path d="M20.3438 30.8545C19.3969 31.267 19.1719 32.5232 19.9126 33.2638C20.5219 33.8732 21.3844 33.8732 21.9938 33.2638C23.1563 32.1013 21.8532 30.1982 20.3438 30.8545Z" fill="white"/>
</svg>
