<svg width="37" height="34" viewBox="0 0 37 34" fill="none" xmlns="http://www.w3.org/2000/svg">
<path d="M25.8281 0.218995C25.5094 0.52837 25.5188 0.95962 25.8563 1.28775C26.1 1.5315 26.1844 1.55025 27.5438 1.66275C28.3313 1.73775 28.9688 1.82212 28.95 1.869C28.9313 1.9065 25.9313 4.28774 22.2844 7.14712L15.6469 12.3596L14.8688 11.5346C14.4469 11.0846 13.575 10.1565 12.9375 9.47212C11.7844 8.24399 11.5406 8.06587 11.1375 8.17837C10.9125 8.23462 0.328125 16.4659 0.1125 16.7377C0.05625 16.8221 0 17.0377 0 17.2065C0 17.8065 0.65625 18.1721 1.18125 17.8627C1.28438 17.7971 3.58125 16.0159 6.27188 13.9065C8.97188 11.7877 11.2031 10.0627 11.2406 10.0627C11.2688 10.0627 12.1594 10.9815 13.2188 12.1065C14.2688 13.2315 15.225 14.169 15.3469 14.1971C15.4688 14.2346 15.6563 14.2252 15.7781 14.1971C15.8906 14.1596 19.1719 11.6377 23.0625 8.57212C26.9531 5.51587 30.15 3.02212 30.1688 3.04087C30.1875 3.05025 30.1313 3.73462 30.0469 4.56899C29.9156 5.92837 29.9156 6.10649 30.0469 6.35962C30.2813 6.81899 31.0125 6.87524 31.3219 6.45337C31.4625 6.26587 31.5469 5.75024 31.7344 3.73462C31.8656 2.36587 31.9688 1.17525 31.9688 1.09087C31.9688 1.0065 31.875 0.818995 31.7531 0.687745C31.5469 0.443995 31.4906 0.43462 29.2031 0.20962C26.1844 -0.0716298 26.1094 -0.0716298 25.8281 0.218995Z" fill="white"/>
<path d="M35.1844 6.42549C33.0938 8.12237 30.5906 10.2599 30.4969 10.4286C30.4125 10.5786 30.3844 13.1661 30.375 21.5755C30.375 33.2286 30.3656 32.9474 30.7969 33.1161C30.8813 33.1442 32.1563 33.1724 33.6188 33.1724H36.2906L36.5156 32.938L36.75 32.713V19.6349C36.75 12.4442 36.7219 6.49112 36.6938 6.40674C36.6188 6.22862 36.1781 5.98487 35.9156 5.98487C35.8125 5.98487 35.4844 6.18174 35.1844 6.42549ZM35.1563 20.0942V31.5786H33.5625H31.9688V21.3786V11.1786L33.4969 9.90362C34.3313 9.20049 35.0438 8.61924 35.0906 8.61924C35.1281 8.60987 35.1563 13.7755 35.1563 20.0942Z" fill="white"/>
<path d="M26.0156 18.0974C25.7438 18.2567 21.375 21.8942 21.075 22.213L20.8125 22.4849V27.6036V32.713L21.0469 32.938L21.2719 33.1724H23.9719C26.8031 33.163 26.85 33.163 27.075 32.7317C27.1594 32.5817 27.1875 30.6692 27.1875 25.5317V18.5286L26.9156 18.2567C26.625 17.9755 26.325 17.9192 26.0156 18.0974ZM25.5938 26.0474V31.5786H24H22.4063V27.3692V23.1599L23.9813 21.838C24.8438 21.1161 25.5563 20.5255 25.575 20.5161C25.5844 20.5161 25.5938 23.0005 25.5938 26.0474Z" fill="white"/>
<path d="M14.0156 20.4692C12.675 21.3692 11.4844 22.213 11.3719 22.3442L11.1562 22.588V27.5567C11.1562 32.6567 11.1656 32.7786 11.5219 33.0505C11.6344 33.1349 12.3938 33.163 14.3719 33.1724H17.0719L17.2969 32.938L17.5313 32.713V25.9724V19.2317L17.3156 19.0349C16.8656 18.613 16.65 18.7067 14.0156 20.4692ZM15.9375 26.3755V31.5786H14.3438H12.75V27.4067V23.2349L14.2781 22.213C15.1125 21.6505 15.825 21.1817 15.8719 21.1817C15.9094 21.1724 15.9375 23.5161 15.9375 26.3755Z" fill="white"/>
<path d="M6.99375 26.0286C6.7125 26.0849 1.8 29.3942 1.6875 29.6005C1.63125 29.7036 1.59375 30.4067 1.59375 31.2505C1.59375 32.6755 1.60313 32.713 1.82813 32.938L2.05313 33.1724H4.78125H7.50938L7.73438 32.938L7.96875 32.713V29.6286C7.96875 26.6942 7.95938 26.5255 7.78125 26.3099C7.59375 26.0661 7.3125 25.963 6.99375 26.0286ZM6.375 29.938V31.5786H4.78125H3.1875V30.988L3.19688 30.4067L4.7625 29.3567C5.625 28.7849 6.3375 28.3067 6.35625 28.3067C6.36563 28.2974 6.375 29.038 6.375 29.938Z" fill="white"/>
</svg>
