<svg width="35" height="51" viewBox="0 0 35 51" fill="none" xmlns="http://www.w3.org/2000/svg">
<path d="M16.771 50.2915H22.2021C22.7606 50.2915 23.2143 49.8389 23.2143 49.2806V42.5692C23.2143 42.0107 22.7606 41.5581 22.2021 41.5581H12.2606C11.7022 41.5581 11.2485 42.0107 11.2485 42.5692V44.6493V49.2119C11.2485 49.8099 11.7318 50.2942 12.3305 50.2942H17.2328" stroke="white" stroke-width="1.245" stroke-miterlimit="10"/>
<path d="M33.9735 17.0091C33.9735 7.82578 26.2872 0.407656 16.8934 0.627314C7.8057 0.839033 0.500603 8.30478 0.624102 17.2394C0.699272 22.6197 3.41352 27.3728 7.55066 30.3076C9.91857 31.9857 11.3683 34.6426 11.3683 37.5114V40.7668C11.3683 41.2033 11.7281 41.5579 12.1737 41.5579H22.4239C22.8669 41.5579 23.2294 41.2033 23.2294 40.7668V37.6016C23.2294 34.7008 24.6711 31.9962 27.0631 30.2971C31.2513 27.3172 33.9735 22.4768 33.9735 17.0091Z" stroke="white" stroke-width="1.245" stroke-miterlimit="10"/>
<path d="M19.1794 41.5557C19.1606 40.145 19.217 38.7291 19.3056 37.3212C19.4881 34.4126 19.8317 31.4908 20.5432 28.6513C20.9406 27.0634 21.4345 25.4807 22.2212 24.0225C22.6561 23.2127 23.1151 22.3605 23.7917 21.7015C24.4226 21.0876 25.2737 20.7171 26.1381 21.1431C27.2765 21.7068 26.7798 23.1677 25.8911 23.6811C25.1851 24.0887 24.2937 24.1946 23.4803 24.2078C21.8775 24.2316 20.2882 23.697 18.8545 23.0274C18.1753 22.7099 17.4961 22.3367 16.935 21.8551C16.3282 21.3337 15.8208 20.5424 15.9013 19.7458C15.998 18.7825 17.1094 18.0838 18.0464 18.6105C18.9297 19.1053 18.8384 20.0951 18.4411 20.8626C18.2504 21.2305 17.99 21.5772 17.6679 21.8551C17.1068 22.3367 16.4275 22.7125 15.7483 23.0274C14.3147 23.697 12.7253 24.2342 11.1225 24.2078C10.3091 24.1946 9.41776 24.0887 8.71168 23.6811C7.82306 23.1677 7.32369 21.7068 8.46469 21.1431C9.32649 20.7171 10.1775 21.0849 10.8111 21.7015C11.4877 22.3605 11.9468 23.2153 12.3817 24.0225C13.1683 25.4834 13.6596 27.0634 14.0596 28.6513C14.7711 31.4908 15.1147 34.4126 15.2973 37.3212C15.3859 38.7291 15.4423 40.145 15.4235 41.5557" stroke="white" stroke-width="1.245" stroke-miterlimit="10"/>
</svg>
