<svg width="48" height="48" viewBox="0 0 48 48" fill="none" xmlns="http://www.w3.org/2000/svg">
<g clip-path="url(#clip0_190_4852)">
<path d="M44.6253 0.187164C38.3253 0.843414 32.5222 2.69967 28.6878 5.27779C27.3285 6.18716 26.7378 6.71217 23.6535 9.77779L20.5503 12.8622L16.1535 13.359C13.7441 13.6215 11.6816 13.8934 11.5785 13.9497C11.4753 14.0059 9.54408 15.8997 7.28471 18.159C3.13158 22.3215 3.12221 22.3309 3.18783 22.9215C3.21596 23.2028 3.55346 23.5215 3.92846 23.6153C4.11596 23.6622 5.52221 23.8778 7.05033 24.0934L9.84408 24.4872L10.6128 25.284C11.0441 25.7153 11.4003 26.109 11.4191 26.1465C11.4285 26.184 10.5191 26.7747 9.39408 27.4497C7.34096 28.6778 7.12533 28.8559 7.12533 29.3528C7.12533 29.4559 7.17221 29.634 7.22846 29.7465C7.37846 30.0372 17.8972 40.5747 18.2066 40.7434C18.3472 40.8184 18.5441 40.8747 18.6472 40.8747C19.1441 40.8747 19.3222 40.659 20.5503 38.6059C21.2253 37.4809 21.816 36.5715 21.8535 36.5809C21.891 36.5997 22.2847 36.9559 22.716 37.3872L23.5128 38.1559L23.9066 40.9497C24.1222 42.4778 24.3378 43.884 24.3847 44.0715C24.4785 44.4465 24.7972 44.784 25.0785 44.8122C25.6691 44.8778 25.6785 44.8684 29.841 40.7153C32.1003 38.4559 33.9941 36.5247 34.0503 36.4215C34.1066 36.3184 34.3785 34.2559 34.641 31.8465L35.1378 27.4497L38.2222 24.3465C41.2878 21.2622 41.8128 20.6715 42.7222 19.3122C45.3378 15.4403 47.1753 9.61842 47.8128 3.24342C48.066 0.702789 48.066 0.702789 47.6816 0.318413C47.391 0.0277901 47.316 -0.000335693 46.8191 0.00904083C46.5097 0.0184135 45.5253 0.0934143 44.6253 0.187164ZM45.9941 2.73716C45.8347 4.57467 45.441 6.91842 44.9347 9.03716L44.6066 10.434L41.1003 6.92779C39.1691 4.99654 37.5941 3.41216 37.5941 3.40279C37.5941 3.39341 38.2128 3.24342 38.9816 3.05592C40.4722 2.69967 42.5722 2.32467 43.9222 2.16529C44.391 2.10904 44.8691 2.04342 45.0003 2.02467C45.1316 2.00591 45.4222 1.98716 45.6472 1.97779L46.0597 1.96841L45.9941 2.73716ZM39.7785 8.23092L43.9785 12.4309L43.641 13.3684C42.7222 15.8622 41.1378 18.5715 39.5816 20.2965C39.1222 20.8122 36.0097 23.9528 32.6816 27.2809L26.6253 33.3278L22.8472 29.5497C19.1441 25.8559 19.0597 25.7809 18.6941 25.7809C18.3003 25.7809 18.0003 25.9684 17.8128 26.334C17.541 26.859 17.6253 26.9528 21.516 30.8434C23.5503 32.8778 25.2191 34.584 25.2191 34.6403C25.2191 34.7622 24.0753 35.9059 23.9535 35.9059C23.8316 35.9059 12.0941 24.1684 12.0941 24.0465C12.0941 23.8497 27.9753 8.10904 28.7441 7.52779C30.3941 6.29966 32.4472 5.19341 34.5003 4.41529C35.0441 4.20904 35.5035 4.04029 35.5316 4.03091C35.5597 4.03091 37.4722 5.92466 39.7785 8.23092ZM14.5691 18.8528L10.7066 22.7059L8.56908 22.4153C7.38783 22.2465 6.34721 22.0872 6.25346 22.0497C6.12221 21.9934 6.73158 21.3465 9.25346 18.8247L12.4222 15.6559L15.1878 15.3372C16.7066 15.1684 18.0566 15.0184 18.1878 15.009C18.3753 14.9997 17.616 15.8059 14.5691 18.8528ZM16.6785 31.3497L20.4566 35.1372L19.5003 36.7403C18.966 37.6215 18.516 38.3434 18.4785 38.3434C18.3566 38.3434 9.61908 29.5403 9.68471 29.4747C9.75971 29.3903 12.7785 27.5715 12.8441 27.5622C12.8722 27.5622 14.5972 29.2684 16.6785 31.3497ZM32.6722 32.634L32.3441 35.5778L29.1753 38.7465C26.6535 41.2684 26.0066 41.8778 25.9503 41.7465C25.9128 41.6528 25.7535 40.6122 25.5847 39.4309L25.2941 37.2934L29.1191 33.459C31.2191 31.359 32.9535 29.6434 32.9722 29.6622C32.991 29.6715 32.8503 31.0122 32.6722 32.634Z" fill="white"/>
<path d="M29.2972 12.0091C29.044 12.0653 28.4722 12.2716 28.0315 12.4872C26.4753 13.2372 25.3034 14.756 24.9847 16.4528C24.8065 17.3528 24.8065 17.7747 24.9847 18.6091C25.444 20.8028 27.1972 22.556 29.3909 23.0153C30.2253 23.1935 30.6472 23.1935 31.5659 23.0153C33.244 22.6966 34.7722 21.5247 35.5128 19.9685C36.9847 16.9122 35.5128 13.331 32.3347 12.2153C31.5472 11.9435 30.1222 11.8403 29.2972 12.0091ZM31.5378 13.9216C32.794 14.306 33.769 15.3185 34.1253 16.6216C34.4347 17.7747 34.0128 19.2466 33.094 20.1653C31.3409 21.9185 28.3034 21.431 27.1878 19.2185C26.1097 17.0903 27.169 14.6435 29.4847 13.9122C30.0003 13.7528 30.9847 13.7528 31.5378 13.9216Z" fill="white"/>
<path d="M15.7781 23.1373C15.4594 23.1842 15.0938 23.6811 15.0938 24.0655C15.0938 24.2998 15.1688 24.4686 15.3656 24.6655C16.05 25.3405 17.175 24.6655 16.875 23.7561C16.8188 23.5873 16.7156 23.4092 16.6406 23.3436C16.4719 23.203 16.0313 23.0905 15.7781 23.1373Z" fill="white"/>
<path d="M4.57505 36.8156C2.88755 38.5031 1.46255 39.9937 1.39693 40.1344C1.32193 40.3312 1.32193 40.4812 1.4063 40.725C1.53755 41.1281 1.8563 41.3438 2.31568 41.3438C2.65318 41.3438 2.7938 41.2125 5.73755 38.2781C7.42505 36.5906 8.85005 35.1 8.91568 34.9594C8.99068 34.7625 8.99068 34.6125 8.9063 34.3687C8.76568 33.9375 8.4938 33.75 8.02505 33.75C7.65943 33.75 7.58443 33.8156 4.57505 36.8156Z" fill="white"/>
<path d="M10.2189 36.5248C9.88144 36.7498 0.590816 46.0123 0.272066 46.4436C-0.0935593 46.9404 -0.0841843 47.2779 0.318941 47.6811C0.722066 48.0842 1.05957 48.0936 1.55644 47.7279C1.98769 47.4092 11.2502 38.1186 11.4752 37.7811C11.7189 37.4154 11.6721 36.9936 11.3346 36.6654C11.0064 36.3279 10.5846 36.2811 10.2189 36.5248Z" fill="white"/>
<path d="M12.8906 39.1781C12.7406 39.2718 11.2687 40.6968 9.6375 42.3468C6.79687 45.1968 6.65625 45.3562 6.65625 45.6937C6.65625 46.1437 6.87187 46.4624 7.275 46.5937C7.51875 46.6781 7.66875 46.6781 7.86562 46.6031C8.00625 46.5374 9.49687 45.1124 11.1844 43.4249C14.1187 40.4812 14.25 40.3406 14.25 40.0031C14.25 39.5531 14.0344 39.2343 13.6687 39.1031C13.2844 38.9624 13.2187 38.9718 12.8906 39.1781Z" fill="white"/>
</g>
<defs>
<clipPath id="clip0_190_4852">
<rect width="48" height="48" fill="white"/>
</clipPath>
</defs>
</svg>
