<svg width="42" height="42" viewBox="0 0 42 42" fill="none" xmlns="http://www.w3.org/2000/svg">
<path d="M1.78125 0.118382C0.609375 0.362132 0 1.01838 0 2.02151C0 3.41838 1.9125 5.61213 5.18438 7.94651L6.00938 8.53713L5.67188 8.96838C1.5 14.434 0.05625 20.7621 1.59375 26.8184C2.67188 31.0184 5.625 35.3965 9.29063 38.2371C12.75 40.909 16.9875 42.3153 20.3063 41.8934C22.8844 41.5746 24.7031 40.7403 25.5375 39.5215C25.9875 38.8559 26.1563 38.1903 26.1563 37.1309C26.1563 36.0809 25.9219 35.284 25.2938 34.2059C24.9094 33.5496 24.8906 33.4653 24.8906 32.7903C24.8906 32.1246 24.9094 32.0403 25.1813 31.7121C25.8469 30.8778 26.7 30.4746 27.9375 30.3903C28.4906 30.3528 28.8188 30.3809 29.4375 30.5496C30.0281 30.709 30.5719 30.7746 31.5469 30.8028C32.7188 30.8403 32.9531 30.8215 33.7781 30.6059C37.3219 29.6965 40.05 26.5934 40.9875 22.3934C41.175 21.5309 41.2031 21.1653 41.2031 19.4871C41.1938 17.284 41.0625 16.4871 40.3969 14.5559C38.6438 9.44651 34.5656 4.90901 29.925 2.89338C27.2719 1.74963 25.0313 1.33713 21.9 1.42151C19.3969 1.48713 17.4094 1.85276 14.7844 2.74338L13.5938 3.14651L12.1125 2.51838C9.35625 1.33713 6.4125 0.427757 4.39688 0.127757C3.23438 -0.0409933 2.50313 -0.0409933 1.78125 0.118382ZM5.33438 1.81526C6.74063 2.11526 8.80313 2.77151 10.5469 3.47463C11.8875 4.01838 14.9906 5.46213 15.4406 5.76213L15.6563 5.89338L14.8594 7.48713C14.3531 8.49026 14.0625 9.19338 14.0625 9.38088C14.0625 9.92463 14.5969 10.2621 15.1406 10.0559C15.225 10.0184 15.6656 9.24026 16.1344 8.32151C16.5938 7.39338 16.9875 6.64338 17.0156 6.64338C17.2688 6.64338 20.5594 8.83713 21.7875 9.82151C22.1531 10.1121 22.4813 10.3746 22.5375 10.4121C22.5844 10.4403 22.425 10.6934 22.1813 10.9653C21.6188 11.584 21.3 12.2121 21.1406 12.9903C21.0656 13.3278 20.9906 13.6184 20.9719 13.6465C20.8219 13.7965 16.65 12.3996 14.8594 11.6028C13.7344 11.1059 13.3219 11.0403 13.0313 11.3309C12.7875 11.5746 12.7781 12.109 13.0125 12.3434C13.2188 12.5496 14.7 13.2059 16.4063 13.8434C17.4844 14.2465 19.2375 14.7809 20.775 15.1653C21.1125 15.259 21.1688 15.3153 21.3656 15.7934C22.0875 17.5184 23.8125 18.6621 25.6875 18.6621C26.4844 18.6621 26.6906 18.6059 28.1719 18.0715C28.875 17.8278 29.7469 17.8559 30.1594 18.1559C30.4781 18.3809 30.8813 19.084 31.0313 19.6746C31.2094 20.3965 31.3219 20.5934 31.6031 20.7059C32.1563 20.9403 32.5781 20.5934 33.1969 19.3746C33.7219 18.334 33.8906 17.0028 33.6469 15.8121C33.4594 14.8746 32.7938 13.6746 32.0156 12.8496C30.7125 11.4621 30.075 11.1528 29.5781 11.659C29.1469 12.0809 29.2406 12.2684 30.4594 13.4684C31.8 14.7996 32.1563 15.409 32.2313 16.5246C32.2781 17.2465 32.1938 18.0809 32.0813 18.0809C32.0438 18.0715 31.875 17.8653 31.6969 17.6215C31.125 16.8246 30.2438 16.4028 29.1563 16.4028C28.3875 16.3934 27.8906 16.5153 27.0563 16.8809C25.5469 17.5465 24.0188 17.1246 23.1188 15.8028C22.2375 14.4996 22.3313 12.8871 23.3438 11.9028C24.1781 11.0965 25.3313 10.7965 26.5219 11.0778C27.1969 11.2371 27.4594 11.1809 27.6938 10.8434C27.9094 10.5434 27.8813 10.234 27.6188 9.97151C27.1781 9.54026 25.7813 9.34338 24.7031 9.57776C24.1969 9.69026 24.0094 9.69963 23.8969 9.61526C23.8125 9.54963 23.3438 9.18401 22.8656 8.79026C21.0094 7.29963 18.8156 5.85588 16.7063 4.72151L15.4781 4.06526L15.825 3.94338C16.0125 3.87776 16.725 3.68088 17.3906 3.50276C23.1188 2.03088 28.9219 3.23088 33.2906 6.79338C34.0219 7.39338 35.4375 8.81838 36.0375 9.56838C37.9031 11.884 39.225 14.8465 39.6469 17.6778C39.7969 18.634 39.7781 20.734 39.6094 21.6528C39.2063 23.9965 37.9594 26.209 36.2531 27.6528C34.3313 29.2653 32.4938 29.6871 29.8031 29.1153C28.3875 28.8153 27.6563 28.7965 26.6625 29.0496C24.4969 29.6028 23.0344 31.5153 23.3438 33.3809C23.4469 34.0278 23.5406 34.2715 23.9906 34.9746C24.1875 35.3028 24.4219 35.7715 24.5063 36.0153C24.675 36.5309 24.7031 37.6465 24.5531 38.1809C24.3938 38.7434 23.8125 39.3059 23.0344 39.634C19.9219 40.9184 16.3594 40.6465 12.9844 38.8559C9.34688 36.9246 6.05625 33.4371 4.18125 29.5184C2.22188 25.4309 1.95938 20.5653 3.46875 16.159C4.1625 14.134 5.2875 12.0153 6.59063 10.2809C6.90938 9.84963 7.2 9.46526 7.22813 9.42776C7.26563 9.38088 7.77188 9.62463 8.35313 9.97151C9.98438 10.9371 10.4531 11.1528 10.7906 11.0309C10.9406 10.984 11.1094 10.8621 11.1563 10.7684C11.2875 10.5246 11.2688 10.084 11.1375 9.90588C11.0719 9.83088 10.4063 9.41838 9.65625 8.98713C5.78438 6.79338 2.90625 4.50588 1.79063 2.75276C1.39688 2.13401 1.40625 1.80588 1.80938 1.61838C2.24063 1.42151 3.96563 1.51526 5.33438 1.81526Z" fill="#F8F8F8"/>
<path d="M10.5094 13.3936C9.4875 13.6092 8.60625 14.2936 8.1375 15.2498C7.85625 15.8217 7.82812 15.9436 7.82812 16.7686C7.82812 17.8467 8.00625 18.3061 8.71875 19.0561C9.4125 19.7967 10.125 20.0967 11.1562 20.0967C11.8219 20.0967 12.0375 20.0592 12.4875 19.8436C14.6625 18.8217 15.1875 16.0748 13.5375 14.3686C12.7875 13.5998 11.5125 13.1873 10.5094 13.3936ZM11.5781 14.9029C13.275 15.3342 13.5281 17.6404 11.9531 18.4186C11.2875 18.7373 10.6687 18.7092 10.0969 18.3061C9.525 17.9123 9.2625 17.3404 9.3 16.6186C9.3375 15.9717 9.58125 15.5311 10.0875 15.1842C10.6219 14.8186 10.9781 14.7529 11.5781 14.9029Z" fill="#F8F8F8"/>
<path d="M35.4842 15.362C34.9873 15.5589 34.8936 15.9714 35.2029 16.6276C35.9248 18.1464 35.6623 19.7401 34.4998 20.8933C33.9092 21.4933 33.3186 21.8026 32.5029 21.9433C31.0311 22.2058 29.3623 21.3714 28.6779 20.0308C28.4342 19.562 28.1154 19.3558 27.7498 19.4401C27.0936 19.5808 27.0186 20.2276 27.5623 21.062C28.8279 23.0308 31.2279 23.9401 33.4029 23.2839C35.3061 22.712 36.7686 21.0058 37.0498 19.0464C37.2561 17.612 36.7498 15.7464 36.0561 15.4183C35.8779 15.3339 35.7186 15.2683 35.6998 15.2776C35.6904 15.2776 35.5873 15.3151 35.4842 15.362Z" fill="#F8F8F8"/>
<path d="M9.7499 23.0873C8.37177 23.4623 7.40615 24.5404 7.22802 25.8904C7.03115 27.4186 7.79052 28.7967 9.1874 29.4623C9.7124 29.7061 9.8999 29.7529 10.5468 29.7529C11.1936 29.7529 11.3811 29.7061 11.9061 29.4623C14.3249 28.3186 14.6155 25.0654 12.4405 23.5748C11.6343 23.0311 10.6311 22.8436 9.7499 23.0873ZM11.1093 24.5592C11.6343 24.7092 12.2249 25.3373 12.3655 25.9092C12.703 27.2592 11.4468 28.5623 10.1343 28.2154C8.70927 27.8311 8.20302 26.1998 9.17802 25.1029C9.68427 24.5311 10.3405 24.3529 11.1093 24.5592Z" fill="#F8F8F8"/>
<path d="M16.7906 30.3811C15.7125 30.5498 14.7563 31.2904 14.2594 32.3311C14.0531 32.7717 14.0156 32.9686 14.0156 33.6904C14.0156 34.4217 14.0531 34.6092 14.2875 35.1154C14.6063 35.8092 15.3375 36.5498 16.0031 36.8498C16.3594 37.0186 16.6313 37.0561 17.3438 37.0654C18.1406 37.0654 18.2906 37.0373 18.75 36.8029C19.4625 36.4373 20.0906 35.7904 20.4094 35.1061C20.6344 34.6092 20.6719 34.4217 20.6719 33.6904C20.6625 32.9592 20.625 32.7717 20.3906 32.2936C20.0719 31.6186 19.4906 31.0186 18.8719 30.6998C18.4688 30.5029 18.2438 30.4373 17.4844 30.3248C17.3813 30.3061 17.0719 30.3342 16.7906 30.3811ZM18.0563 31.9654C18.4313 32.0967 18.9281 32.6217 19.0875 33.0342C19.6969 34.6467 18 36.1936 16.4906 35.3967C15.9375 35.0967 15.5531 34.5342 15.4875 33.9342C15.3563 32.4904 16.6969 31.4686 18.0563 31.9654Z" fill="#F8F8F8"/>
</svg>
