<svg width="36" height="47" viewBox="0 0 36 47" fill="none" xmlns="http://www.w3.org/2000/svg">
<path d="M25.7245 22.8948C30.8743 19.9899 34.4866 14.3524 34.4866 8.01503V0.622559H0.622559V8.01503C0.622559 14.3855 3.95214 19.843 9.14777 22.7368" stroke="white" stroke-width="1.245" stroke-miterlimit="10"/>
<path d="M14.8778 31.1875V39.6382H7.09619V45.6406H28.2513V39.6382H20.1998V31.1875" stroke="white" stroke-width="1.245" stroke-miterlimit="10"/>
<path d="M10.9771 18.2346V0.76123" stroke="white" stroke-width="1.245" stroke-miterlimit="10"/>
<path d="M24.0815 0.76123V18.2346" stroke="white" stroke-width="1.245" stroke-miterlimit="10"/>
<path d="M14.481 15.5861L14.6009 0.70166" stroke="white" stroke-width="1.245" stroke-miterlimit="10"/>
<path d="M20.4604 0.76123V15.5493" stroke="white" stroke-width="1.245" stroke-miterlimit="10"/>
<path d="M9.21886 22.7637C9.52674 18.4609 13.112 15.0664 17.4899 15.0664C22.0698 15.0664 25.7831 18.7816 25.7831 23.364C25.7831 27.9465 22.0698 31.6615 17.4899 31.6615C12.91 31.6615 9.19678 27.9465 9.19678 23.364C9.19835 23.1618 9.20466 22.9612 9.21886 22.7637Z" stroke="white" stroke-width="1.245" stroke-miterlimit="10"/>
<path d="M17.5026 18.2114L19.0971 21.4448L22.6635 21.9629L20.0838 24.4792L20.6932 28.0318L17.5026 26.3542L14.3135 28.0318L14.9229 24.4792L12.3433 21.9629L15.9081 21.4448L17.5026 18.2114Z" stroke="white" stroke-width="1.245" stroke-miterlimit="10"/>
</svg>
