<svg width="33" height="33" viewBox="0 0 33 33" fill="none" xmlns="http://www.w3.org/2000/svg">
<path d="M2.03459 7.14858C2.2998 7.14727 2.55363 7.04066 2.74024 6.85219C2.92684 6.66373 3.03094 6.40886 3.02962 6.14364L3.01476 3.14368L6.01473 3.12882C6.27994 3.12751 6.53377 3.02089 6.72037 2.83243C6.90698 2.64397 7.01108 2.38909 7.00976 2.12388C7.00845 1.85867 6.90183 1.60484 6.71337 1.41823C6.52491 1.23163 6.27003 1.12753 6.00482 1.12885L2.00487 1.14866C1.73966 1.14997 1.48583 1.25659 1.29922 1.44505C1.11262 1.63351 1.00852 1.88839 1.00984 2.1536L1.02965 6.15355C1.03096 6.41876 1.13758 6.67259 1.32604 6.8592C1.5145 7.0458 1.76937 7.1499 2.03459 7.14858Z" fill="#FF471C"/>
<path d="M26.0148 3.02974L29.0147 3.01488L29.0296 6.01484C29.0309 6.28005 29.1375 6.53388 29.326 6.72049C29.5145 6.90709 29.7693 7.01119 30.0345 7.00988C30.2998 7.00856 30.5536 6.90195 30.7402 6.71348C30.9268 6.52502 31.0309 6.27015 31.0296 6.00494L31.0098 2.00498C31.0084 1.73977 30.9018 1.48594 30.7134 1.29934C30.5249 1.11273 30.27 1.00864 30.0048 1.00995L26.0049 1.02976C25.7397 1.03108 25.4858 1.13769 25.2992 1.32615C25.1126 1.51462 25.0085 1.76949 25.0098 2.0347C25.0111 2.29992 25.1178 2.55374 25.3062 2.74035C25.4947 2.92696 25.7496 3.03105 26.0148 3.02974Z" fill="#FF471C"/>
<path d="M6.14377 29.1283L3.14381 29.1432L3.12895 26.1432C3.12764 25.878 3.02102 25.6242 2.83256 25.4376C2.6441 25.251 2.38922 25.1469 2.12401 25.1482C1.8588 25.1495 1.60497 25.2561 1.41836 25.4446C1.23176 25.633 1.12766 25.8879 1.12898 26.1531L1.14879 30.1531C1.1501 30.4183 1.25672 30.6721 1.44518 30.8587C1.63364 31.0453 1.88852 31.1494 2.15373 31.1481L6.15368 31.1283C6.41889 31.127 6.67272 31.0204 6.85933 30.8319C7.04593 30.6434 7.15003 30.3886 7.14871 30.1233C7.1474 29.8581 7.04079 29.6043 6.85232 29.4177C6.66386 29.2311 6.40899 29.127 6.14377 29.1283Z" fill="#FF471C"/>
<path d="M30.1235 25.0097C29.8583 25.011 29.6044 25.1176 29.4178 25.3061C29.2312 25.4946 29.1271 25.7494 29.1284 26.0146L29.1433 29.0146L26.1433 29.0295C25.8781 29.0308 25.6243 29.1374 25.4377 29.3259C25.2511 29.5143 25.147 29.7692 25.1483 30.0344C25.1496 30.2996 25.2562 30.5535 25.4447 30.7401C25.6332 30.9267 25.888 31.0308 26.1532 31.0294L30.1532 31.0096C30.4184 31.0083 30.6722 30.9017 30.8588 30.7132C31.0454 30.5248 31.1495 30.2699 31.1482 30.0047L31.1284 26.0047C31.1271 25.7395 31.0205 25.4857 30.832 25.2991C30.6436 25.1125 30.3887 25.0084 30.1235 25.0097Z" fill="#FF471C"/>
<path d="M30.9714 16.4652C31.0443 16.3227 31.0819 16.1647 31.0812 16.0046C31.0804 15.8445 31.0411 15.687 30.9668 15.5452C29.585 12.7489 27.4606 10.3866 24.826 8.71703C22.1914 7.04741 19.1483 6.13479 16.0297 6.07906C12.9119 6.16568 9.87792 7.1084 7.26002 8.80403C4.64212 10.4997 2.54117 12.8828 1.18716 15.6927C1.11422 15.8352 1.07657 15.9932 1.07736 16.1532C1.07815 16.3133 1.11737 16.4709 1.19172 16.6127C2.57349 19.409 4.69795 21.7712 7.33252 23.4409C9.96709 25.1105 13.0102 26.0231 16.1288 26.0788C19.2467 25.9922 22.2806 25.0495 24.8985 23.3538C27.5164 21.6582 29.6173 19.275 30.9714 16.4652ZM16.1189 24.0788C13.4566 24.0256 10.8569 23.2618 8.58897 21.8665C6.32101 20.4711 4.4672 18.495 3.21942 16.1426C4.44383 13.778 6.27799 11.7836 8.53201 10.3659C10.786 8.94818 13.378 8.15865 16.0396 8.07904C18.7019 8.13228 21.3016 8.8961 23.5695 10.2914C25.8375 11.6868 27.6913 13.6629 28.9391 16.0152C27.7147 18.3799 25.8805 20.3742 23.6265 21.792C21.3725 23.2097 18.7805 23.9992 16.1189 24.0788Z" fill="#FF471C"/>
<path d="M16.0492 10.0792C14.8626 10.0851 13.7043 10.4427 12.7209 11.1069C11.7375 11.7711 10.9731 12.7119 10.5244 13.8105C10.0757 14.9091 9.96285 16.1161 10.2001 17.2788C10.4374 18.4415 11.0141 19.5078 11.8574 20.3427C12.7006 21.1777 13.7726 21.7438 14.9376 21.9696C16.1026 22.1953 17.3084 22.0705 18.4025 21.611C19.4966 21.1514 20.4298 20.3778 21.0842 19.3878C21.7386 18.3979 22.0848 17.2361 22.0789 16.0494C22.071 14.4581 21.4313 12.9352 20.3005 11.8155C19.1698 10.6959 17.6405 10.0713 16.0492 10.0792ZM16.0988 20.0791C15.3077 20.083 14.5331 19.8522 13.8732 19.416C13.2132 18.9797 12.6974 18.3576 12.3911 17.6282C12.0847 16.8988 12.0015 16.0949 12.152 15.3182C12.3025 14.5415 12.6799 13.8269 13.2366 13.2648C13.7932 12.7026 14.504 12.3181 15.2792 12.1599C16.0543 12.0017 16.859 12.077 17.5914 12.3761C18.3238 12.6752 18.951 13.1848 19.3938 13.8404C19.8366 14.496 20.075 15.2682 20.0789 16.0593C20.0842 17.1202 19.6678 18.1397 18.9214 18.8935C18.1749 19.6474 17.1596 20.0738 16.0988 20.0791Z" fill="#FF471C"/>
</svg>
