<svg width="33" height="33" viewBox="0 0 33 33" fill="none" xmlns="http://www.w3.org/2000/svg">
<g clip-path="url(#clip0_187_4605)">
<path d="M16.1086 11.2429C16.5491 11.2407 16.904 10.882 16.9018 10.4418C16.8996 10.0016 16.5412 9.64646 16.1007 9.64864C12.5791 9.66608 9.73826 12.5352 9.75571 16.0571C9.77315 19.5788 12.6422 22.4196 16.1639 22.4021C19.6858 22.3847 22.5266 19.5156 22.5092 15.9939C22.507 15.5535 22.1483 15.1986 21.7081 15.2008C21.268 15.2029 20.9128 15.5614 20.915 16.0018C20.9281 18.6431 18.7976 20.7951 16.156 20.8082C13.5147 20.8212 11.3628 18.6905 11.3497 16.0492C11.3366 13.4076 13.4673 11.2559 16.1086 11.2429Z" fill="#FF471C"/>
<path d="M31.3176 11.2157C31.1771 10.7981 30.7248 10.5736 30.307 10.7141C29.899 10.8514 29.6736 11.2875 29.7975 11.6998C32.2188 19.2789 28.0377 27.3859 20.4586 29.8073C12.8797 32.2286 4.7727 28.0475 2.35134 20.4684C-0.070255 12.8892 4.11107 4.78224 11.69 2.36089C14.4956 1.46466 17.5083 1.44973 20.3224 2.31813C20.7449 2.44323 21.1888 2.20226 21.3139 1.77976C21.4371 1.36362 21.2052 0.925558 20.7917 0.793327C12.3498 -1.80942 3.39605 2.92419 0.793306 11.3664C-1.80944 19.8083 2.92441 28.762 11.3663 31.3648C19.8085 33.9675 28.762 29.2339 31.3647 20.7917C32.3273 17.6697 32.3108 14.328 31.3176 11.2157Z" fill="#FF471C"/>
<path d="M17.5988 5.7661C17.6007 5.31223 17.2502 4.93457 16.7974 4.90287C16.5593 4.88379 16.3209 4.86471 16.0765 4.86592C9.91326 4.89644 4.94174 9.91746 4.97227 16.0807C5.00279 22.2437 10.0238 27.2152 16.1871 27.1847C22.3501 27.1542 27.3216 22.1332 27.2911 15.9702C27.2896 15.6818 27.2706 15.3938 27.2338 15.1079C27.1679 14.6707 26.7602 14.3697 26.323 14.4356C25.8858 14.5013 25.5849 14.9093 25.6505 15.3464C25.653 15.363 25.656 15.3794 25.6595 15.396C25.6778 15.589 25.6959 15.7803 25.6968 15.9776C25.7232 21.2605 21.462 25.5641 16.1794 25.5907C10.8965 25.6171 6.59289 21.3557 6.56648 16.0731C6.54007 10.7904 10.801 6.48655 16.0839 6.46014L16.0842 6.46013C16.2819 6.45915 16.4736 6.47529 16.6664 6.49143L16.8158 6.50314C17.2324 6.5189 17.5829 6.19392 17.5984 5.77733C17.5986 5.77343 17.5986 5.76976 17.5988 5.7661Z" fill="#FF471C"/>
<path d="M20.871 7.23376L20.8852 10.0921L15.5655 15.4647C15.2504 15.7722 15.2441 16.2769 15.5516 16.592C15.859 16.9071 16.3637 16.9134 16.6789 16.6059C16.6854 16.5996 16.692 16.5929 16.6983 16.5863L22.0179 11.2137L24.8763 11.1996C25.0877 11.1985 25.2899 11.1135 25.4388 10.9631L30.1976 6.15679C30.5073 5.84398 30.5048 5.33935 30.192 5.02961C30.0418 4.88094 29.8388 4.79796 29.6274 4.79901L27.236 4.81085L27.2242 2.41953C27.222 1.97935 26.8633 1.62419 26.4229 1.62661C26.2117 1.62766 26.0095 1.71264 25.8608 1.8628L21.1019 6.66913C20.9529 6.81929 20.87 7.02234 20.871 7.23376ZM22.4669 7.55594L25.6395 4.35171L25.6458 5.61586C25.6479 6.05604 26.0066 6.4112 26.4468 6.40902L27.711 6.40275L24.5383 9.60698L22.4771 9.61719L22.4669 7.55594Z" fill="#FF471C"/>
</g>
<defs>
<clipPath id="clip0_187_4605">
<rect width="32" height="32" fill="white" transform="translate(0 0.158494) rotate(-0.283784)"/>
</clipPath>
</defs>
</svg>
