<svg width="126" height="50" viewBox="0 0 126 50" fill="none" xmlns="http://www.w3.org/2000/svg">
<path d="M16.9756 35.9512C13.626 35.9512 10.6829 35.2033 8.14634 33.7073C5.60976 32.2114 3.60976 30.1463 2.14634 27.5122C0.715447 24.8455 0 21.7724 0 18.2927C0 14.813 0.715447 11.7561 2.14634 9.12195C3.60976 6.45529 5.60976 4.37398 8.14634 2.87805C10.6829 1.38211 13.626 0.634147 16.9756 0.634147C20.3252 0.634147 23.2846 1.38211 25.8537 2.87805C28.4228 4.37398 30.4065 6.45529 31.8049 9.12195C33.2358 11.7561 33.9512 14.813 33.9512 18.2927C33.9512 21.7724 33.2358 24.8455 31.8049 27.5122C30.4065 30.1463 28.4228 32.2114 25.8537 33.7073C23.2846 35.2033 20.3252 35.9512 16.9756 35.9512ZM16.9756 29.3659C18.9594 29.3659 20.6504 28.9106 22.0488 28C23.4797 27.0894 24.5854 25.8211 25.3659 24.1951C26.1463 22.5366 26.5366 20.5691 26.5366 18.2927C26.5366 16.0163 26.1463 14.065 25.3659 12.439C24.5854 10.7805 23.4797 9.51219 22.0488 8.63415C20.6504 7.72358 18.9594 7.26829 16.9756 7.26829C15.0569 7.26829 13.3821 7.72358 11.9512 8.63415C10.5203 9.51219 9.41463 10.7805 8.63415 12.439C7.85366 14.065 7.46342 16.0163 7.46342 18.2927C7.46342 20.5691 7.85366 22.5366 8.63415 24.1951C9.41463 25.8211 10.5203 27.0894 11.9512 28C13.3821 28.9106 15.0569 29.3659 16.9756 29.3659Z" fill="white"/>
<path d="M39.3236 35.3659V10.7805H45.8114L46.4943 15.2683C47.1447 14.2276 47.9089 13.3333 48.787 12.5854C49.665 11.8374 50.6731 11.252 51.8114 10.8293C52.9821 10.4065 54.2341 10.1951 55.5675 10.1951V17.9512H53.1284C52.1528 17.9512 51.2585 18.065 50.4455 18.2927C49.665 18.4878 48.9821 18.8293 48.3967 19.3171C47.8439 19.8049 47.4049 20.4715 47.0797 21.3171C46.787 22.1301 46.6406 23.1545 46.6406 24.3902V35.3659H39.3236Z" fill="white"/>
<path d="M59.9051 35.3659V10.7805H67.2222V35.3659H59.9051ZM63.5636 7.95122C62.2628 7.95122 61.2059 7.57724 60.3929 6.82927C59.5799 6.0813 59.1734 5.13821 59.1734 4C59.1734 2.82927 59.5799 1.86992 60.3929 1.12195C61.2059 0.373984 62.2628 0 63.5636 0C64.897 0 65.9701 0.373984 66.7832 1.12195C67.6287 1.86992 68.0515 2.82927 68.0515 4C68.0515 5.13821 67.6287 6.0813 66.7832 6.82927C65.9701 7.57724 64.897 7.95122 63.5636 7.95122Z" fill="white"/>
<path d="M71.4261 35.3659L80.4017 23.0732L71.4261 10.7805H79.3285L84.987 18.7317L90.6456 10.7805H98.4992L89.5236 23.0732L98.4992 35.3659H90.6456L84.987 27.3659L79.3285 35.3659H71.4261Z" fill="white"/>
<path d="M113.009 35.9512C110.635 35.9512 108.505 35.3984 106.619 34.2927C104.733 33.187 103.237 31.6748 102.131 29.7561C101.025 27.8049 100.473 25.5935 100.473 23.122C100.473 20.5854 101.025 18.3577 102.131 16.439C103.237 14.4878 104.733 12.9594 106.619 11.8537C108.538 10.748 110.668 10.1951 113.009 10.1951C115.416 10.1951 117.562 10.748 119.448 11.8537C121.334 12.9594 122.83 14.4878 123.936 16.439C125.042 18.3577 125.595 20.5691 125.595 23.0732C125.595 25.5772 125.042 27.8049 123.936 29.7561C122.83 31.6748 121.334 33.187 119.448 34.2927C117.562 35.3984 115.416 35.9512 113.009 35.9512ZM113.009 29.6098C113.985 29.6098 114.847 29.3659 115.595 28.878C116.375 28.3902 116.993 27.6585 117.448 26.6829C117.903 25.7073 118.131 24.5041 118.131 23.0732C118.131 21.6423 117.903 20.439 117.448 19.4634C116.993 18.4878 116.391 17.7561 115.643 17.2683C114.895 16.7805 114.034 16.5366 113.058 16.5366C112.082 16.5366 111.204 16.7805 110.424 17.2683C109.676 17.7561 109.074 18.4878 108.619 19.4634C108.164 20.439 107.936 21.6423 107.936 23.0732C107.936 24.5041 108.164 25.7073 108.619 26.6829C109.074 27.6585 109.676 28.3902 110.424 28.878C111.204 29.3659 112.066 29.6098 113.009 29.6098Z" fill="white"/>
<path d="M24.3902 49.9847C24.3902 49.9847 24.3902 49.9997 24.3902 49.9967C24.3902 45.9586 20.561 42.6826 15.8537 42.6826C11.1463 42.6826 7.31707 45.9586 7.31707 49.9997V49.9877H24.3902V49.9847Z" fill="#FF471C"/>
</svg>
